<svg width="32" height="36" viewBox="0 0 32 36" fill="none" xmlns="http://www.w3.org/2000/svg">
<g filter="url(#filter0_d)">
<path d="M20.8879 21.4986L20.8564 21.519L20.8261 21.5413C19.4726 22.5381 18.5772 22.9295 17.7818 23.2772C17.5109 23.3956 17.2516 23.509 16.9898 23.6394C16.4706 23.8981 15.9652 24.2236 15.5065 24.7749C15.0603 24.23 14.5692 23.9047 14.059 23.6449C13.7939 23.5099 13.5321 23.3935 13.2578 23.2715C12.479 22.9253 11.599 22.5341 10.2528 21.5425L10.2224 21.5202L10.1907 21.4997C7.24227 19.591 5.25 16.1391 5.25 12.1695C5.25 6.07529 9.9182 1.25 15.5385 1.25C21.1589 1.25 25.827 6.07529 25.827 12.1695C25.827 16.1384 23.8355 19.5898 20.8879 21.4986Z" fill="#EC5D5D" stroke="white" stroke-width="2.5"/>
</g>
<defs>
<filter id="filter0_d" x="0" y="0" width="31.077" height="35.5" filterUnits="userSpaceOnUse" color-interpolation-filters="sRGB">
<feFlood flood-opacity="0" result="BackgroundImageFix"/>
<feColorMatrix in="SourceAlpha" type="matrix" values="0 0 0 0 0 0 0 0 0 0 0 0 0 0 0 0 0 0 127 0"/>
<feOffset dy="4"/>
<feGaussianBlur stdDeviation="2"/>
<feColorMatrix type="matrix" values="0 0 0 0 0 0 0 0 0 0 0 0 0 0 0 0 0 0 0.25 0"/>
<feBlend mode="normal" in2="BackgroundImageFix" result="effect1_dropShadow"/>
<feBlend mode="normal" in="SourceGraphic" in2="effect1_dropShadow" result="shape"/>
</filter>
</defs>
</svg>
